<svg xmlns="http://www.w3.org/2000/svg" viewBox="0 0 600 560">
	<path d="m 453.31835,0.00391639 c -0.47059,-0.00825481 -0.9402,-0.00548697 -1.40684,0.00782955 -4.47985,0.12783864 -8.71907,1.26253456 -11.57813,3.63877876 L 342.67462,84.320235 484.03204,255.09229 h 0.0176 c 9.52266,0 18.59577,0.54367 27.21811,1.63442 l 82.22647,-68.01326 c 6.86494,-5.67074 9.07421,-23.15396 2.8137,-30.71724 L 471.05882,6.6629403 C 467.73595,2.6486118 460.37737,0.12773859 453.31835,0.00391639 Z M 449.42698,67.917348 c 4.27076,0.0082 8.51412,1.859919 11.47233,5.433701 l 11.33123,13.691909 c 5.25903,6.353386 4.40694,15.668842 -1.91042,20.887252 l -13.61199,11.24518 c -6.31737,5.21843 -15.63806,4.304 -20.89707,-2.04938 l -11.3332,-13.68995 c -5.25901,-6.353391 -4.40695,-15.670794 1.91042,-20.889216 l 13.61396,-11.245177 c 2.76384,-2.283056 6.10304,-3.390732 9.42474,-3.384319 z M 298.88778,82.685819 16.545224,315.91411 c -19.5032306,15.99516 -21.6596864,59.16483 -7.0205523,76.7667 44.8456323,54.07468 82.8070643,100.0382 122.0082883,147.39696 22.09721,26.69551 57.10927,23.79295 76.79696,7.53006 56.45802,-46.56723 129.70514,-107.28066 187.63271,-155.32242 l -42.17339,-1.24866 c -0.80049,-49.17665 13.24389,-91.8115 43.43917,-113.1096 13.40161,-8.89524 28.85686,-15.18694 46.35757,-18.88485 z m 208.6062,55.382251 c 4.27076,0.008 8.51412,1.85992 11.47231,5.43369 l 11.33321,13.69191 c 5.25901,6.3534 4.40693,15.66885 -1.91043,20.88726 l -13.61395,11.24518 c -6.31735,5.21842 -15.6361,4.30597 -20.89509,-2.04742 l -11.33321,-13.69191 c -5.25902,-6.35339 -4.40695,-15.66882 1.91042,-20.88725 l 13.61199,-11.24519 c 2.76385,-2.28305 6.10304,-3.39268 9.42475,-3.38627 z"/>
	<path d="m 542.69532,474.4463 h 56.25 l -2.34375,84.96094 H 380.39063 Q 380,551.20412 380,551.0088 q 0,-37.89062 16.40625,-67.96875 8.39844,-15.42968 23.24219,-30.66406 14.84375,-15.23437 36.13281,-30.66406 35.9375,-26.5625 46.28907,-38.28125 10.35156,-12.10938 10.35156,-24.41406 0,-11.91407 -7.03125,-19.53125 -7.03125,-7.61719 -21.09375,-7.61719 -30.07813,0 -30.07813,38.08594 l -69.92187,-2.14844 q 2.14844,-46.67969 31.05469,-66.21094 29.10156,-19.33594 73.4375,-19.33594 48.4375,0 78.51562,22.26563 30.07813,22.46094 30.07813,58.59375 0,23.24219 -15.23438,42.96875 -15.625,19.72656 -59.57031,42.1875 -35.54688,17.96875 -47.65625,27.14844 -12.30469,9.57031 -18.75,21.67968 h 85.54687 z"/>
</svg>
