<svg xmlns="http://www.w3.org/2000/svg" viewBox="0 0 620 448">
  <path d="M 48,0 C 21.49,0 0,21.49 0,48 v 352 c 0,26.51 21.49,48 48,48 h 352 c 26.51,0 48,-21.49 48,-48 V 290.84766 h -96.23633 c -12.26773,0 -22.13867,-9.92778 -22.13867,-22.26758 v -89.06836 c 0,-12.33979 9.87094,-22.26758 22.13867,-22.26758 H 448 V 131.88281 A 48,48 0 0 0 433.94141,97.94141 L 350.05859,14.058594 A 48,48 0 0 0 316.11719,0 Z m 28,64 h 228.51953 c 3.183,0 6.23633,1.264625 8.48633,3.515625 l 3.47852,3.478515 A 11.996,11.996 0 0 1 320,79.48047 V 180 c 0,6.627 -5.373,12 -12,12 H 76 c -6.627,0 -12,-5.373 -12,-12 V 76 c 0,-6.627 5.373,-12 12,-12 z m 148,192 c 35.346,0 64,28.654 64,64 0,35.346 -28.654,64 -64,64 -35.346,0 -64,-28.654 -64,-64 0,-35.346 28.654,-64 64,-64 z"/>
  <path d="m 352.44619,252.75908 v -57.4583 c 0,-7.96037 6.4042,-14.36458 14.36457,-14.36458 h 119.7048 v -62.12679 c 0,-12.80842 15.44192,-19.21262 24.53949,-10.17491 l 105.34023,105.22052 c 5.62612,5.62613 5.62612,14.72369 0,20.34982 L 511.05505,339.36551 c -9.03772,9.03771 -24.53949,2.6335 -24.53949,-10.17491 v -62.06694 h -119.7048 c -7.96037,0 -14.36457,-6.40421 -14.36457,-14.36458 z"/>
</svg>
