<svg xmlns="http://www.w3.org/2000/svg" viewBox="0 0 615 448">
  <path d="m 215.55381,0 c -26.51,0 -48,21.49 -48,48 v 25.33984 c 0.0987,0.0943 0.2012,0.17841 0.29883,0.27539 l 63.70117,63.62891 V 76 c 0,-6.627 5.373,-12 12,-12 h 228.51953 c 3.183,0 6.23633,1.264625 8.48633,3.515625 l 3.47852,3.478515 a 11.996,11.996 0 0 1 3.51562,8.48633 V 180 c 0,6.627 -5.373,12 -12,12 H 286.37217 l 18.79687,18.77539 c 7.33388,7.33391 7.33388,19.19344 0,26.52734 l -137.3164,137.08204 c -0.0977,0.0977 -0.20002,0.18243 -0.29883,0.27734 V 400 c 0,26.51 21.49,48 48,48 h 352 c 26.51,0 48,-21.49 48,-48 V 131.88281 A 48,48 0 0 0 601.49522,97.94141 L 517.6124,14.058594 A 48,48 0 0 0 483.671,0 Z m 176,256 c 35.346,0 64,28.654 64,64 0,35.346 -28.654,64 -64,64 -35.346,0 -64,-28.654 -64,-64 0,-35.346 28.654,-64 64,-64 z" />
  <path d="m 0,252.75908 v -57.4583 C 0,187.34041 6.4042,180.9362 14.36457,180.9362 h 119.7048 v -62.12679 c 0,-12.80842 15.44192,-19.21262 24.53949,-10.17491 l 105.34023,105.22052 c 5.62612,5.62613 5.62612,14.72369 0,20.34982 L 158.60886,339.36551 c -9.03772,9.03771 -24.53949,2.6335 -24.53949,-10.17491 V 267.12366 H 14.36457 C 6.4042,267.12366 0,260.71945 0,252.75908 Z"/>
</svg>