<svg xmlns="http://www.w3.org/2000/svg" viewBox="0 0 600 300">
<path fill="#FFFFFF" d="M 54.206716,1.8505472e-4 C 29.053867,-0.08852821 -0.05307503,31.737878 7.2676049e-5,54.572245 c 0.06552457395,70.068625 0,129.527825 0,190.846665 0,34.56461 28.741862323951,54.57207 54.206643323951,54.57207 119.275474,0.0874 363.897894,-0.48872 363.897894,-0.48872 L 419.39908,1.8505472e-4 Z M 451.99664,29.070716 V 268.75334 l 126.29581,-0.0839 c 8.87936,0 21.69245,-12.041 21.69245,-21.83374 L 600,50.904489 c 0,-8.870645 -11.80152,-21.863551 -21.68756,-21.833753 z m 65.43532,51.812597 h 17.60795 c 8.17111,0 14.7493,6.622535 14.7493,14.848732 v 17.726665 c 0,8.22619 -6.57819,14.84872 -14.7493,14.84872 h -17.60795 c -8.17112,0 -14.74932,-6.62253 -14.74932,-14.84872 V 95.732045 c 0,-8.226197 6.5782,-14.848732 14.74932,-14.848732 z m 0,90.830017 h 17.60795 c 8.17111,0 14.7493,6.62253 14.7493,14.84872 v 17.72666 c 0,8.2262 -6.57819,14.84874 -14.7493,14.84874 h -17.60795 c -8.17112,0 -14.74932,-6.62254 -14.74932,-14.84874 v -17.72666 c 0,-8.22619 6.5782,-14.84872 14.74932,-14.84872 z"/>
</svg>