<svg xmlns="http://www.w3.org/2000/svg" viewBox="0 0 620 448">
  <path d="M 220 0 C 193.49 0 172 21.49 172 48 L 172 157.3457 L 236 157.3457 L 236 76 C 236 69.373 241.373 64 248 64 L 476.51953 64 C 479.70253 64 482.75586 65.264625 485.00586 67.515625 L 488.48438 70.994141 C 490.73577 73.244438 492.00048 76.297291 492 79.480469 L 492 180 C 492 186.627 486.627 192 480 192 L 291.99219 192 L 291.99219 268.67188 C 291.99219 281.01048 282.06517 290.9375 269.72656 290.9375 L 172 290.9375 L 172 400 C 172 426.51 193.49 448 220 448 L 572 448 C 598.51 448 620 426.51 620 400 L 620 131.88281 C 620.00015 119.15236 614.94312 106.94327 605.94141 97.941406 L 522.05859 14.058594 C 513.05673 5.0568832 500.84764 -0.00014719717 488.11719 0 L 220 0 z M 396 256 C 431.346 256 460 284.654 460 320 C 460 355.346 431.346 384 396 384 C 360.654 384 332 355.346 332 320 C 332 284.654 360.654 256 396 256 z "/>
  <path d="m 268.16868,252.75908 v -57.4583 c 0,-7.96037 -6.4042,-14.36458 -14.36457,-14.36458 h -119.7048 v -62.12679 c 0,-12.80842 -15.44192,-19.21262 -24.53949,-10.17491 L 4.21959,213.85502 c -5.62612,5.62613 -5.62612,14.72369 0,20.34982 l 105.34023,105.16067 c 9.03772,9.03771 24.53949,2.6335 24.53949,-10.17491 v -62.06694 h 119.7048 c 7.96037,0 14.36457,-6.40421 14.36457,-14.36458 z"/>
</svg>
