<svg xmlns="http://www.w3.org/2000/svg" viewBox="0 0 600 560">
	<path d="m 451.9115,0.0117454 c -4.47984,0.12783869 -8.71906,1.2625352 -11.57813,3.6387804 l -97.65875,80.6697462 153.22946,185.115858 97.59017,-80.7226 c 6.86494,-5.67073 9.07421,-23.15396 2.8137,-30.71726 L 471.05881,6.6629428 C 467.51442,2.3809904 459.3779,-0.20131909 451.9115,0.0117454 Z m -2.48453,67.9056326 c 4.27076,0.0082 8.51412,1.85992 11.47233,5.433703 l 11.33124,13.691915 c 5.25902,6.353389 4.40694,15.668844 -1.91042,20.887264 l -13.612,11.24519 c -6.31737,5.21843 -15.63806,4.304 -20.89706,-2.04939 l -11.3332,-13.68995 c -5.25902,-6.353396 -4.40696,-15.670805 1.91041,-20.889229 l 13.61396,-11.245183 c 2.76384,-2.283057 6.10304,-3.390733 9.42474,-3.38432 z M 298.88778,82.685855 16.545223,315.91426 C -2.9580061,331.90942 -5.1144623,375.0791 9.5246716,392.68098 54.370303,446.75569 92.331736,492.71923 131.53296,540.07801 c 22.0972,26.69552 57.10927,23.79296 76.79695,7.53007 209.32138,-173.30283 0,0 209.32138,-173.30283 v -73.60186 c 1.56752,0.13048 3.20036,0.19573 4.89851,0.19573 16.99121,0 32.75777,-3.28428 47.30201,-9.84565 z m 208.60619,55.382275 c 4.27076,0.008 8.51412,1.85992 11.47231,5.4337 l 11.33321,13.69192 c 5.25902,6.35339 4.40694,15.66885 -1.91042,20.88727 l -13.61395,11.24518 c -6.31736,5.21842 -15.63609,4.30597 -20.8951,-2.04743 l -11.33321,-13.69192 c -5.25902,-6.35339 -4.40695,-15.66883 1.91042,-20.88726 l 13.612,-11.24518 c 2.76384,-2.28305 6.10303,-3.39269 9.42474,-3.38628 z"/>
	<path d="m 600.81261,559.40724 h -162.5 v -62.5 h 38.67187 V 374.05567 q -10.54687,2.73438 -28.90625,2.73438 -5.85937,0 -9.76562,-0.58594 v -60.15625 q 2.34375,0.19531 4.88281,0.19531 25.58594,0 47.46094,-9.96093 22.26562,-10.15625 31.83594,-24.02344 h 40.82031 v 214.64844 h 37.5 z"/>
</svg>